<?xml version="1.0" ?><svg data-name="Layer 1" id="Layer_1" viewBox="0 0 508.33 508.36" xmlns="http://www.w3.org/2000/svg"><defs><style>.cls-1{fill:#e8e9ea;fill-rule:evenodd;}.cls-2{fill:#e24444;}.cls-3{fill:#2175bb;}.cls-4{fill:#824dba;}.cls-5{fill:#4aae48;}.cls-6{fill:#f7bd1b;}</style></defs><title/><path class="cls-1" d="M485,29.72c11.45,15.13,16.61,40.21,19.15,70.7,3.36,45.5,4.71,100.1,6,156.52-1.67,57.47-2.35,115.43-6,156.52-2.88,31.54-9,52.66-19.22,65.47-13,12.79-37.94,23.59-73.5,26.15-43.25,3.69-96.61,3.65-155.48,5.1-65.44-1.12-109.82-.64-156.38-5.08-36.32-2.52-60.08-13.19-74.7-26.07-10.83-14.54-14-30-17-66.24-3.75-41.85-4.58-98.56-6-155.54C4,200.57,4.13,143.44,7.9,100.74,10.43,67.05,14.42,44.4,24.65,30,39,17.77,63.48,11.69,100,8.69c50-5.85,102.06-7,155.88-6.87,55.39.09,108.56,1.67,156,6.34,32,2.56,58.48,8.07,73.07,21.56Z" transform="translate(-1.83 -1.82)"/><path class="cls-2" d="M311.93,112.43a147.1,147.1,0,0,0-114.14-3.66L311.93,212.36V112.43Z" transform="translate(-1.83 -1.82)"/><path class="cls-3" d="M173,377.75V248.88c-5,4.55-60.19,54.72-61.92,56.28A150.2,150.2,0,0,0,173,377.75Z" transform="translate(-1.83 -1.82)"/><path class="cls-4" d="M100.27,249.75a150,150,0,0,0,5.44,38.93L238.57,168c-2.54-2.29-55-49.92-56.72-51.47a149.11,149.11,0,0,0-81.57,133.25Z" transform="translate(-1.83 -1.82)"/><path class="cls-5" d="M188.74,314.88v71.51A149.34,149.34,0,0,0,236.32,399h27.49a150.45,150.45,0,0,0,121-84.12Z" transform="translate(-1.83 -1.82)"/><path class="cls-6" d="M327.73,121.91V299.1h63.78A149.22,149.22,0,0,0,400,249.75c0-52.08-27.69-100.71-72.29-127.85Z" transform="translate(-1.83 -1.82)"/></svg>